<svg xmlns="http://www.w3.org/2000/svg" viewBox="0 0 102.74 122.88"><path d="M31.25 37.01a4.85 4.85 0 00-2.54.66c-.33.22-.57.5-.73.84a3.1 3.1 0 00-.24 1.35c.04 1.53.85 3.53 2.4 5.83l.02.03 5.03 8c2.02 3.21 4.13 6.48 6.76 8.88a13.82 13.82 0 009.65 3.88c4.39.01 7.6-1.61 10.21-4.05 2.71-2.54 4.85-6.02 6.96-9.49l5.67-9.33c1.06-2.41 1.44-4.02 1.2-4.97-.14-.56-.76-.84-1.82-.89l-.69-.01c-.25.01-.52.02-.79.05-.15.01-.3 0-.44-.03-.5.03-1.02-.01-1.55-.08l1.94-8.59c-14.4 2.27-25.17-8.42-40.39-2.14L33 37.07c-.64.04-1.22.02-1.75-.06zm36.82 67.77v4.83l-9.93 5.63v-5.63l6.39-2.43-6.39-2.4v-5.63l9.93 5.63zm-17.2 12.05h-4.23l5.22-20.34h4.23l-5.22 20.34zm-7.06-12.05l-6.39 2.4 6.39 2.43v5.63l-9.93-5.63v-4.83l9.93-5.63v5.63zM75.73 35.2c.21-8.77 1.82-17.63-4.42-24.82C66.86 5.25 55.28.42 47.77.01c-3.17-.17-1.96 2.41-5.09 3.49-6.46 2.23-12.11 6.97-13.96 13.55a19.5 19.5 0 00-.62 3.26c-.21 4.58-.09 10.04.24 14.38-.45.17-.86.38-1.22.62a4.85 4.85 0 00-1.73 2.01 5.7 5.7 0 00-.49 2.62c.06 2.06 1.01 4.56 2.85 7.31l5.03 8c1.76 2.8 3.6 5.65 5.84 8.06l-.06.18c-.62 1.88-1.66 5.02-2.59 6.78-6.11 4-20.1 5.03-25.53 8.06C-4.38 86.59.97 103.62.79 117.69c.29 3.14 2.07 4.94 5.57 5.21h3.79L6 91.4c-.32-2.45 1.42-4.46 3.56-4.46h42.45c-.79-5.1-13.98-10.02-14.45-13.86.13-.09.25-.21.35-.35 1.12-1.56 2.28-4.81 3.08-7.18a16.32 16.32 0 0010.6 3.8c3.92.01 7.05-1.08 9.68-2.85l.8 1.17a55.84 55.84 0 004.07 5.49c-.29 4.37-11.73 4.42-13.03 13.78h40.74c2.14 0 3.89 2.01 3.56 4.46l-4.15 31.5h3.79c3.5-.27 5.28-2.07 5.58-5.21-.99-13.29 3.99-31.76-9.65-39.36-5.36-2.99-19.06-4.03-25.29-7.9-1.05-1.3-2.18-2.96-3.18-4.42l-.92-1.34.15-.13c2.99-2.8 5.24-6.45 7.45-10.09l5.73-9.44.09-.16c1.34-3.05 1.78-5.29 1.38-6.87a3.65 3.65 0 00-2.66-2.78z" fill="gray" fill-rule="evenodd" clip-rule="evenodd"/></svg>