<svg xmlns="http://www.w3.org/2000/svg" width="393.75" height="98"><path d="M35 0c-7.3 0-15.96 7.03-23.1 18.83C4.45 31.06 0 46.2 0 59.34.01 78.6 10.81 98 35.01 98c24.17 0 35-19.41 35-38.66 0-13.14-4.44-28.28-11.85-40.5C50.95 7.02 42.3 0 35.01 0zm189 28.88h24.5v63.87h26.25V28.88h24.49V5.25H224v23.62zm131.24 0h38.5V5.25h-38.5c-35.37 0-54.26 17.59-54.26 43.75s18.89 43.75 54.26 43.75h38.5V69.12h-38.5c-16.37 0-27.13-5.85-27.13-20.12s10.76-20.12 27.13-20.12zM170.61 5.25l-13.99 52.23-13.99-52.23H96.26v87.5h26.24V21.58l19.07 71.17h30.1l19.08-71.21v71.21H217V5.25h-46.39z" fill="#e30613" fill-rule="evenodd"/></svg>