<svg xmlns="http://www.w3.org/2000/svg" width="344" height="67"><g fill="none" fill-rule="evenodd"><path fill="#231F20" d="M134.95 31.54a4.96 4.96 0 100 9.92 4.96 4.96 0 000-9.92zm201.69-3.63c3.25 0 5.62 1.82 7.18 3.63v-8.78a15.01 15.01 0 00-8.3-2.42c-8.22 0-15.36 5.88-15.36 16 0 9.7 6.5 16 15.49 16 2.6 0 5.45-.39 8.17-2.24v-8.62c-1.56 1.6-4.02 3.3-7.18 3.3-4.84 0-7.74-3.6-7.74-8.18 0-4.98 3.07-8.7 7.74-8.7zm-15.55-6.7h-9.95l-9.13 12.7v-12.7h-8.47v30.27h8.47V38.46l8.78 13.02h10.6l-11.8-15.61 11.5-14.67zM268.5 39.36V21.2h-8.17v30.28h8.3l11.73-18.17v18.17h8.17V21.2h-8.3L268.5 39.37zm-24.56-4.54h-2.42v-6.96h2.42c3.63 0 4.15 1.94 4.15 3.45 0 1.3-.39 3.5-4.15 3.5zm1.86-13.63h-12.76v30.28h8.48v-10h4.28c8.56 0 11.03-5.96 11.03-10.16 0-4.15-2.42-10.12-11.03-10.12zm-38.02 7.27h6.66v23.01h8.48V28.47h6.66V21.2h-21.8v7.27zm-23.5 10.9V21.2h-8.16v30.28h8.3l11.72-18.17v18.17h8.18V21.2h-8.3l-11.73 18.17zm-25.25 6.05h-3.63v-6.35h3.63c2.68 0 4.24.78 4.24 3.16 0 2.42-1.6 3.2-4.24 3.2zm.82-12.41h-4.45v-4.54h13.88V21.2h-22.36v30.28h12.93c2.2 0 11.9.09 11.9-9.38 0-9.13-9.6-9.09-11.9-9.09zm-60.38 3.33c0 9.7 6.49 16 15.49 16 2.6 0 5.45-.39 8.17-2.24v-8.62c-1.56 1.6-4.02 3.3-7.18 3.3-4.85 0-7.74-3.6-7.74-8.18 0-4.98 3.07-8.7 7.74-8.7 3.24 0 5.62 1.83 7.18 3.64v-8.78a15.02 15.02 0 00-8.3-2.42c-8.22 0-15.36 5.88-15.36 16zm-17.75-8.17h4.63v23.31h7.83V21.2H81.72v6.97z"/><path fill="#D91935" d="M33.29 0c-2.48 0-4.9.28-7.22.8V33.3a7.25 7.25 0 007.24 7.24 7.25 7.25 0 00.48-14.45v-5.8c6.95.26 12.54 6 12.54 13.02 0 7.17-5.85 13.02-13.02 13.02A13.05 13.05 0 0120.29 33.3V2.64c-.83.34-1.63.73-2.42 1.15V33.3c0 8.5 6.94 15.43 15.44 15.43s15.43-6.93 15.43-15.42c0-8.34-6.67-15.17-14.95-15.43V12.1a21.26 21.26 0 0120.73 21.22 21.26 21.26 0 01-21.21 21.21 21.26 21.26 0 01-21.22-21.22V7.63A33.3 33.3 0 1033.29 0"/></g></svg>