<svg version="1" xmlns="http://www.w3.org/2000/svg" width="1312" height="1312" viewBox="0 0 984.000000 984.000000"><path d="M452.8 1.4c-3.8 1.6-7.5 5.3-11.3 11.1-5.9 9.1-10.8 12.8-22.2 16.9-10.1 3.5-22.6 9.3-30.2 13.8-3.4 2.1-6.5 3.8-6.8 3.8-2.3 0-30 22.1-35.6 28.5-1 1.1-3 3.3-4.6 5-3.9 4.3-12.5 15.6-14.1 18.5-.7 1.4-2.5 4.3-3.9 6.5s-2.6 4.2-2.7 4.5c0 .3-1.3 3.2-2.9 6.5-4.7 10.1-8.8 23.2-10.1 32-.3 1.6-.7 3.6-1 4.4-1.2 3.6-1.9 21.5-1.8 50.6 0 28.3.3 39.2 1.9 67l.4 7-5.6 3c-6.8 3.6-14.4 11.1-17.3 17.1-5.1 10.9-6 27.5-2 38 .6 1.6 1.1 3.1 1.1 3.4-.5 4.1 9.8 25 20 40.5 2.1 3.3 4.2 6.7 4.6 7.5.9 2.1 4.6 7.4 5.6 8.1.5.3.8.8.6 1-.1.2 1 2.4 2.6 4.9 18.5 29.2 23.5 37.4 23.5 38.1 0 .5.5.9 1 .9.6 0 1 .4 1 .9s2.3 4.5 5.2 8.8c2.9 4.3 5.3 8 5.3 8.3 0 .3.8 1.6 1.8 3s5.9 8.3 10.9 15.5c5.1 7.1 9.7 13.5 10.2 14.1.6.7 2.5 2.9 4.2 5 1.8 2.2 4.6 5.5 6.2 7.4 2.2 2.4 3 4.3 2.7 6-.4 2.4-8.6 26.5-10.4 30.5-.8 1.7-2.1 4.9-2.6 6.5-.1.3-.5 1.7-.9 3.2-.5 1.6-1.2 2.8-1.7 2.8s-.8.3-.7.7c.4 1.9-3.6 9.2-6.1 11-4.3 3.3-23.2 12.3-28.6 13.7-.5.2-1.7.6-2.5.9-.8.3-3.7 1.3-6.5 2.2-2.7 1-5.7 2-6.5 2.3-.8.3-1.9.6-2.5.7-.5.2-5.1 1.5-10.1 2.9-5 1.5-10 2.9-11 3.1-1 .2-3.9.9-6.4 1.6-2.5.6-5.2 1.2-6 1.4-.8.2-5.3 1.4-10 2.5-4.7 1.2-9.6 2.3-11 2.5-1.4.2-6.3 1.3-11 2.5s-9.8 2.4-11.5 2.7c-1.6.2-4.1.8-5.5 1.3-1.4.5-3.6 1.1-5 1.4-1.4.2-5.4 1.1-9 2-3.6.9-7.4 1.8-8.5 2.1-6.6 1.5-13.4 3.4-15.8 4.4-1.6.6-3.3.9-3.8.5-.5-.3-.9 0-.9.7s-.2 1-.5.7c-1.5-1.4-28.1 9.8-36.1 15.1-2.5 1.7-4.7 3.1-5 3.1-.3 0-4 2.6-8.2 5.7-7.2 5.3-29.3 26.3-27.8 26.3.4 0-.7 1.5-2.4 3.3-1.6 1.7-3.3 4-3.6 4.9-.3 1-1 1.8-1.5 1.8s-.9.6-.9 1.4c0 .8-.6 2.1-1.4 2.9-2.1 2.1-12.6 23.9-12 24.9.3.4.1.8-.4.8-.7 0-4.7 11.6-4.5 13 .1.3-.3 1.2-.8 2.1-.7 1.4-1.2 3.1-2.5 9.4-.2 1.1-.8 4-1.3 6.5-1.3 6.4-2.2 11.9-2.7 16.5-.2 2.2-.7 6.2-1.1 9-.9 7.2-.9 64.8.1 78.5 1.1 16.4 1.4 20.2 2.1 32.5.3 6 .8 13 1 15.5.6 5.9 1.7 31.3 2 46.5.5 21.6 5.6 32.6 19.3 41.4 8.4 5.3 16.7 6.9 37.2 7.1l18.2.1-.7-6.3c-.4-3.5-.9-7-1-7.9-.2-.9-.6-4-1-7-.3-3-.8-6.6-1.1-8-.6-4.1-1.5-11-1.9-14.9-.2-1.9-.6-5.1-1-7-.3-1.9-.8-5.3-1-7.5-.2-2.2-.7-6-1-8.5-.4-2.5-.8-5.9-1-7.5-.1-1.7-.5-4.6-.8-6.5-.3-1.9-1.1-7.6-1.7-12.5-.7-5-1.4-10.1-1.6-11.5-.2-1.4-.6-4.5-.9-7-.5-4.7-.9-7.3-1.9-15-1-6.9-1.6-12.1-2.1-16-.2-1.9-.6-4.9-.9-6.5-.3-1.7-.8-5.7-1.2-9-.8-7.4-1.2-10-1.4-10-.1 0-.3-1.8-.5-4s-.6-5.6-.9-7.5c-.3-1.9-.8-6-1.2-9-.3-3-.8-6.3-1-7.4-.2-1-.6-4.4-.9-7.5-.4-3.1-.8-6.3-1-7.1-.4-1.3-.8-4.7-2-16-.2-1.4-.4-2.5-.5-2.5-.1 0-.3-1.4-.4-3-.7-7.5-1.8-16.1-2.3-16.8-.2-.4-.4-3.5-.4-7 0-12.1 6.4-23.2 16.5-28.4 5.1-2.7 5.1-2.7 30.2-2.9 13.9-.1 25.7-.5 26.3-.8.6-.4 1.1-.4 1.1.1 0 .9 18.7 1 19.6.1.3-.4 1.8-.3 3.2.1 3.2.8 21.4.6 23.6-.2.9-.4 1.6-.3 1.6.1 0 .8 18.7.8 19.6 0 .3-.4 1.8-.3 3.2.1 3.2.8 21.4.6 23.6-.2.9-.4 1.6-.3 1.6.1 0 .8 18.7.8 19.6-.1.3-.3 1.6-.3 2.8.1 2.8 1 86.9.7 88.4-.2.7-.4 1.2-.4 1.2.1 0 .9 18.7 1 19.6.1.3-.4 1.8-.3 3.2.1 3.3.8 37.3.6 39.6-.2.9-.4 1.6-.3 1.6.1s1.4.7 3 .7c1.7.1 3-.3 3-.7 0-.5.8-.5 1.8-.1.9.5 4 .8 6.7.7 9-.3 8.5-.2 7.5-2.8-.5-1.3-.6-2.7-.3-3 .4-.3.1-.6-.5-.6-.7 0-1.2-.6-1.2-1.4 0-.7-1.8-4.1-4-7.4-5.2-7.8-15.1-17.3-28.5-27.5-10.8-8.2-39.3-27.7-40.5-27.7-.4 0-1-.7-1.4-1.5-.3-.8-1-1.5-1.6-1.5-.5 0-3.1-1.6-5.7-3.6-2.7-2-6-4.4-7.4-5.5-8.9-6.7-15.7-13.2-19.8-19.2-4-5.9-4.6-8.7-2.4-11.2 1-1.1 2.8-3.8 4.1-6 2.1-3.5 3.6-6.8 8.7-18 1.8-3.9 8.7-22.5 11-29.3l1.7-5.3 3.1 2.4c15.1 11.4 35.9 21.5 49.6 24.2 1.2.2 3 .6 3.9.9.9.3 3.5.8 5.7 1.1 2.2.2 5.1.7 6.5 1 4.4 1 37.2.5 38.8-.6.3-.2 1.3-.4 6.6-1.3 4.5-.7 15.8-3.8 19.6-5.3.8-.4 1.7-.7 2-.8 5.1-1.7 13.1-5.7 19.9-9.7 6.5-3.9 8.1-4.5 8.1-2.9 0 .5.6 1.6 1.3 2.3.6.7 3.4 4.7 6.1 8.8 7.7 11.8 27.5 38.4 29.9 40.1 2.2 1.6-2.8 11.8-8.3 16.7-3.7 3.4-15.5 10.9-24 15.4-4.1 2.2-10.2 5.5-13.5 7.4-3.3 1.9-6.9 3.9-8 4.4-1.9 1-4.7 2.6-6.9 4.2-22.8 16.2-32.9 28.4-39.5 47.8-2.5 7.3-3.8 15-2.5 15.1 5.2.5 26.5.3 28.7-.3 1.5-.3 2.7-.4 2.7 0 0 .8 18.8.8 19.6 0 .3-.4 1.8-.3 3.2.1 3.3.8 37.3.6 39.6-.2.9-.4 1.6-.3 1.6.1 0 .8 18.7.8 19.6 0 .3-.4 1.8-.3 3.2.1 3.4.8 85.3.6 87.6-.2.9-.4 1.6-.3 1.6.1 0 .8 18.7.8 19.6 0 .3-.4 1.8-.3 3.2.1 3.2.8 21.4.6 23.6-.2.9-.4 1.6-.3 1.6.1 0 .8 18.7.8 19.6 0 .3-.4 1.8-.3 3.2.1 3.2.8 21.4.6 23.6-.2.9-.4 1.6-.3 1.6.1 0 .6 18.5.8 20 .2.3-.1 1-.1 1.5 0 .6.1 2.5.4 4.3.6 8.5.8 17.8 8.3 21.9 17.2 2.5 5.8 3.3 14.6 2 23.7-.4 2.7-1.2 8.4-1.7 12.6-.6 4.1-1.2 8.4-1.4 9.5-.2 1-.7 4.6-1 7.9-.4 3.3-.9 7.3-1.2 8.9-.3 1.6-.7 5-.9 7.5-.2 2.5-.5 4.8-.6 5.1-.3.7-1.3 8-2.5 18-.6 4.9-1.5 11.8-2.9 22.5-.3 2.3-.7 5-.9 6-.2 1.1-.7 4.9-1.1 8.5-.4 3.6-.8 7.2-1 8-.1.8-.6 4.2-1 7.5-.4 3.2-.8 6.7-1 7.6-.2.9-.6 4-1 7-.3 3-.8 6.5-1 7.9-.3 1.4-.7 5-1 8-.3 3-.7 6.6-1 8-.2 1.4-.7 4.4-1 6.7-.3 2.3-.8 5.7-1 7.5-.3 1.8-.7 5.3-1 7.8-.6 6.2-1.4 12-2 15-.5 2.8-1.6 11-2 15.5-.2 1.6-.6 5-1 7.5-.9 6.5-1.3 9.8-2 16-.3 3-.8 6.5-1.1 7.8l-.5 2.4 19.3-.5c23.9-.6 22.5-.4 33.3-5.2 10.2-4.6 18.2-15 21.3-27.5.3-1.5 1.2-74 1.5-135.5.2-39.9-.9-59.1-4.4-75.2-.6-2.6-1-5.8-1-7 0-1.2-.4-2.5-.9-2.8-.6-.4-.8-1-.5-1.5.3-.5-.1-3.4-1-6.3-.9-3-1.7-6.3-1.9-7.3-.3-1.1-.9-3-1.4-4.4-.5-1.4-1-2.7-1-3-.1-.7-1.8-5.3-4.4-12-4.4-11.1-12.5-25.1-20.3-34.9-4.1-5.2-20.7-21.2-23.6-22.6-1.6-.9-2.9-2-2.9-2.5 0-.6-.6-1-1.3-1-.7 0-2.2-.8-3.3-1.8-7.5-6.6-37.3-18.7-53.4-21.6-.8-.2-2.2-.6-3-.9-1.8-.7-17.4-4.7-20.9-5.3-1.3-.3-5.1-1.2-8.5-2-3.4-.8-7.2-1.7-8.6-2-1.4-.3-4.3-1-6.5-1.6-3.8-1-5-1.2-10.5-2.3-3.5-.7-20.9-5-30.5-7.4-4.4-1.2-9.1-2.4-10.4-2.7-1.4-.3-2.8-.7-3.3-1-.4-.3-1.6-.7-2.6-.9-8.6-1.6-30.6-9.7-42.9-15.7-8.6-4.2-10.9-5.8-14.3-10.2-2.2-2.8-4.4-5.6-5-6.3-.5-.6-4-5.6-7.7-11s-7.1-10-7.5-10.1c-.4-.2-.8-1-.8-1.8s-.4-1.4-.9-1.4-1.2-.8-1.6-1.9c-.3-1-1.7-3.1-3-4.7-1.4-1.6-2.4-3.4-2.3-4.1.2-.6 3.5-4.4 7.3-8.5 6-6.2 13.2-14.6 17-19.6.6-.7 1.8-2.2 2.8-3.3.9-1 1.4-1.9 1-1.9-.5 0-.3-.4.3-.8s4.4-5.7 8.4-11.7c4.1-6.1 7.8-11.2 8.2-11.3.4-.2.8-.8.8-1.3 0-.4 4-7.3 8.8-15.1 7.6-12.3 10.7-17.4 18.5-30.3.7-1.1 2.6-4.2 4.3-7 3.1-5 7-11.5 8.9-14.7 7.2-12.1 11.1-18.4 11.7-18.6.4-.2.8-.8.8-1.3s1.8-3.8 3.9-7.2c2.2-3.4 4.9-8.7 6.1-11.7 1.1-3 2.5-6.4 3-7.5 1.1-2.3 5.2-16.1 5.7-19 .1-1.1.5-4.6.7-7.8.2-3.2.6-6.1.9-6.3.6-.6-1.7-11-3.2-14.8-2.6-6.5-12.2-15.6-16.5-15.6-1.9 0-3.2-2.7-2.9-6 .8-8.8.8-11.2.1-11.6-.5-.3-.5-1.1-.1-1.7.4-.7.8-3.5.9-6.2.1-2.8.5-12.7.9-22 .6-13.9 1-48 .5-48-.1 0-.3-2.9-.6-6.5-.8-12.2-1.5-17.8-3.6-28-.6-3-1.2-6-1.4-6.6-2.8-14.9-15.2-42.1-24.4-53.7-6.3-8-13.9-16.2-19-20.7-3.5-3-6.8-6-7.4-6.5-1.3-1.2-3.3-2.6-13.1-9.2-8.3-5.7-7.6-5.2-21.2-12.9-11.9-6.7-24.4-12.9-25.5-12.6-.5.1-.8-.3-.8-.8s-.3-.9-.7-.8c-.5.1-2.6-.6-4.8-1.6-7-3.1-25.7-10.2-33-12.5-3.8-1.3-7.7-2.5-8.5-2.8-2.3-.9-3.3-1.2-18.7-5.2-6.2-1.6-13.4-3.2-16-3.5-2.6-.4-5.9-.9-7.3-1.2-10.4-2-27.7-2.6-31.2-1zm-20.3 199.1c13.2 1 16.4 1.3 20.3 2 1.7.3 4.4.7 6 .9 2.4.4 18.3 3.3 22.2 4.1.8.2 5.3 1.3 10 2.5s10.4 2.6 12.8 3.1c2.4.5 4.7 1.1 5.1 1.3.4.3 1.8.7 3.2 1 1.3.3 6 1.4 10.4 2.6 4.4 1.1 9.4 2.3 11 2.6 1.7.3 3.8 1 4.8 1.6 1 .5 2.1.7 2.4.4.3-.2 1.7 0 3.2.6 1.4.5 3.7 1.2 5.1 1.4 1.4.3 4.3 1 6.5 1.6 2.2.5 4.9 1.1 6 1.3 1.1.1 4 .8 6.5 1.4 2.5.7 6.1 1.4 8 1.6 1.9.2 4.6.7 6 1 1.4.3 4.3.8 6.5 1.1 2.2.3 5.4.7 7 .9 16.5 2.4 52.2 2.3 62.2-.2 2.4-.5 2.4.5.3 8.7-.5 1.9-1.2 4.8-1.5 6.5-1.2 5.8-1.6 8-2.6 12-1.7 7.1-1.9 8-2.3 10-.2 1.1-1.9 8.4-3.7 16.3-1.8 7.8-2.9 14.5-2.6 14.9.4.3 7.8.7 16.4.8 9.2.1 17.3.6 19.4 1.3 4.5 1.6 6.7 5.9 6.2 12.7-.3 5.7-5.2 22.6-6.8 23.7-.5.4-.7.8-.3.8 1.6 0-6.3 14.4-19.1 35-1.6 2.6-24.1 39.4-25.4 41.5-.7 1.1-2.4 3.9-3.9 6.2-1.4 2.3-3.4 5.8-4.3 7.7-1 2-2.1 3.6-2.6 3.6s-.9.5-.9 1.1c0 1.3-18.9 30.3-20.1 30.7-.5.2-.9.8-.9 1.4 0 .5-.6 1.5-1.2 2.3-.7.7-2.2 2.5-3.3 4.1-1.1 1.5-3.4 4.4-5 6.3-1.7 2-3.9 4.7-5 6-4.5 5.4-16.5 16.9-22.1 21.1-3.2 2.5-6.1 4.7-6.4 5-.3.3-1.5 1.1-2.7 1.7-1.3.7-3.3 1.9-4.5 2.5-1.3.7-2.6 1.7-2.9 2.1-.3.5-.8.8-1 .7-.2 0-3.1 1.1-6.4 2.6-7.3 3.2-15.9 6-21 6.8-2 .4-4 .8-4.4 1-.3.2-3.5.7-7 1-3.6.4-6.8.9-7.3 1.2-.4.3-.8 0-.8-.6 0-.7-.6-.8-1.7-.2-2.3 1.1-16.2.5-25.3-1.1-12-2.1-27.9-8.1-39.5-15-11.5-6.7-31-25.9-43.6-42.7-11.3-15-44.3-65.6-48.4-74-.5-1.1-1.3-2-1.7-2-.5 0-.8-.4-.8-.9s-5.8-10.1-12.9-21.3C308 342.9 304 333.9 303.6 319c-.5-15.5 9.2-22.6 30.7-22.2l10.9.2-.6-6.8c-.3-3.7-.8-8.3-1-10.2-.3-1.9-.7-6.2-1.1-9.4-.3-3.3-.8-7.3-1-9-.6-4.4-1.7-14.4-2-19.1-.2-2.2-.6-6.1-.9-8.8-.3-2.6-.8-6.8-1.1-9.3-.3-2.6-.8-5-1-5.4-1.4-2.3 7.2-6.9 17.5-9.5.3-.1 1.2-.4 2-.8 1.6-.6 6.4-1.8 9.5-2.4 1.1-.2 3.8-.9 6-1.5s4.9-1.3 6-1.4c1.1-.1 3.1-.5 4.5-.8 4.3-.8 11.2-1.6 19-2.2 4.1-.3 7.6-.6 7.7-.7.3-.4 14.1.1 23.8.8z"/><path d="M497.1 773c-.7.5-4.5 13.2-5.7 19-.3 1.3-1.6 6.7-3 12-1.4 5.2-2.7 10.3-2.9 11.3-.2 1-.7 2.7-1 3.7-.3 1-.7 2.7-.9 3.7-.2 1-.9 3.8-1.6 6.3-.7 2.5-1.4 5.2-1.5 6-.2.8-.4 1.5-.5 1.5-.1 0-.3.7-.5 1.5s-.6 2.6-.9 4c-1.3 6.3-4.4 17.9-5 18.8-.3.5-.8 2.4-1.1 4.3-.8 4.3-4.4 18.9-5.2 20.9-.3.8-.7 2.2-.9 3-.2.8-1.7 6.9-3.4 13.5s-3.3 13.3-3.6 15c-.3 1.6-1 3.8-1.5 4.8-.5.9-.7 1.7-.5 1.7.3 0 .1 1.2-.5 2.6-.5 1.5-1.2 4.1-1.4 5.8l-.5 3.1h33.4l1.3-5.5c.8-3 1.6-6.2 2-7 .7-1.6.8-2.3 1.7-6 .3-1.4 1.4-6.1 2.6-10.5 2.9-11.1 3-11.7 3.6-14.4.3-1.4 1.4-5.7 2.5-9.7 1.1-4 2.2-8.1 2.4-9.1.2-1 1.6-6.3 3-11.8 1.4-5.5 2.7-10.7 2.9-11.5.2-.8.9-3.5 1.6-6 .7-2.5 1.4-5.2 1.5-6 .2-.8.8-3 1.4-4.8.5-1.8 1-3.3.9-3.5 0-.1.5-2.2 1.2-4.7s1.3-5.2 1.5-6.1c.2-.8 1.5-6 2.9-11.5 1.5-5.4 2.9-10.9 3.1-12.2.7-3.2 1.3-5.2 2.4-9 .5-1.8 1-3.5 1-3.7.1-.3.1-.6.2-.8.5-1.6 1.1-4.7 1.2-6.6l.2-2.4-15.8-.1c-8.8-.1-16.2.1-16.6.4zM426.5 797c-2.7 1.6-7.7 4.4-11 6.1-3.3 1.7-6.2 3.4-6.5 3.8-.3.3-1.8 1.3-3.5 2.1-1.6.8-3.6 2.1-4.3 2.8-.8.7-1.8 1-2.3.7-.5-.4-.9-.2-.9.3s-.8 1.2-1.7 1.5c-1 .4-4.5 2.2-7.8 4.2s-7.1 4.1-8.5 4.8c-1.4.6-2.7 1.4-3 1.8-.3.3-1.8 1.2-3.5 2.1-5.1 2.5-19.2 10.5-20.5 11.6-.3.2-.5 8.9-.5 19.3-.1 15.9.2 19.2 1.5 20.3.8.7 6.2 3.9 12 7.1 5.8 3.2 11.7 6.6 13.1 7.6 1.4 1 2.8 1.6 3.1 1.3.3-.2 1.1.2 1.8 1.1.7.8 1.6 1.5 2.1 1.5s2.7 1.1 4.8 2.4c2.1 1.3 7.8 4.7 12.7 7.4 4.9 2.7 11.2 6.2 13.9 7.7 2.8 1.6 5.9 3.3 7 3.9 1.1.6 2.2 1.4 2.5 1.7.3.4 1.6 1 2.9 1.4 2.2.7 2.3.5 1.9-2.4-.2-1.7-.2-3.1.1-3.1.3 0 .6-1.6.6-3.5s-.2-3.5-.5-3.5c-.5 0-.4-6.8 0-8 .2-.3.1-1 0-1.5-.6-3-.5-8.5.2-8.5.5 0 .5-.8 0-1.8-.5-.9-.6-2.6-.2-3.6.3-1.1.4-3.4 0-5-.5-2.9-1.4-3.4-11.5-7.2-6.1-2.3-12.1-4.6-13.5-5.2-1.4-.5-6.3-2.4-11-4.2-4.7-1.7-9.4-3.6-10.5-4-1.1-.5-2.7-1-3.5-1.3-1.1-.3 12.1-6 16.5-7.1.6-.2 2.4-.9 4-1.5 1.7-.7 3.5-1.4 4-1.5.6-.2 2.4-.8 4-1.5 1.7-.6 7.2-2.8 12.3-4.7 7.9-3.1 9.3-3.9 8.9-5.5-.3-1-.1-2.2.4-2.5.5-.3.6-1 .2-1.7-1-1.6-1-5.7 0-5.7.4 0 .3-.8-.2-1.9-.6-1-.8-2.1-.5-2.4.8-.7.9-11.6.1-12.3-.3-.3-.2-1.7.3-3 .6-1.4.6-2.4 0-2.4-.5 0-.5-1.2 0-2.9.4-1.5.4-3.4 0-4.1-.5-.7-.6-1.9-.3-2.7.7-1.7.6-1.7-5.2 1.7zM546.9 794.7c0 .4-.1 10.6-.2 22.6l-.2 21.7 4 1.5c2.2.8 10.1 3.8 17.5 6.6s16.7 6.2 20.5 7.6c3.9 1.4 7.4 2.8 7.8 3.2.4.4-4.5 2.7-11 5.1-6.5 2.4-13.6 5.1-15.8 6-2.2.9-8 3.2-13 5-4.9 1.9-9.2 3.5-9.4 3.6-.7.6-.6 43.6.1 44 .4.3 4.8-1.8 9.7-4.6 5-2.8 9.3-5 9.7-5 .4.1 1-.2 1.3-.8.3-.5 3.8-2.6 7.6-4.7 3.9-2.1 8.2-4.7 9.8-5.7 1.5-1.1 2.7-1.6 2.7-1.1 0 .4.4.3.8-.3.8-1.2 19-11.4 20.3-11.4.5 0 .9-.5.9-1 0-.6.4-1 .9-1 1.8 0 15.1-8.2 15.2-9.3 0-.7.1-9.3.2-19.2l.2-18-3.2-2.3c-1.8-1.2-3.4-2.2-3.7-2.2-.3 0-6.8-3.5-14.3-7.9-7.6-4.3-15.4-8.7-17.3-9.8-17-9.6-35.1-19.9-37.7-21.5-1.8-1.1-3.3-1.6-3.4-1.1z"/></svg>