<svg xmlns="http://www.w3.org/2000/svg" height="48.15" width="325.9"><path d="M119.4 1.87c-6.8 2.2-13.9 8.4-13 15.4 0 8 8 14.2 15.9 16.8-6.2-7.1-10.6-15.9-6.7-25.6 1.8-4.1 3.8-6.6 3.8-6.6z" fill="#6cb94f"/><path d="M104.7 19.17c-2.7 7-.1 15.8 5.2 19.4 7.1 5.3 16.8 2.7 23.9-3.5-9.7 1.8-20.3 0-25.7-8.7-2.4-4.1-3.4-7.2-3.4-7.2z" fill="#158e9b"/><path d="M111.1 41.27c4.9 6 13.8 8.5 20.9 5.8 4.8-1.9 8.4-7.1 9.2-13 .5-3-.1-5.5-.5-8.5-3.5 9.7-11.4 16.5-21.6 17-4.7-.3-8-1.3-8-1.3z" fill="#2fb7e9"/><path d="M135 47.47c7.7-1.9 15.6-9 15.6-16.9 0-5.3-5.5-14.8-15.9-16.8 7.1 7.1 11.5 18.6 5.4 27.5-2.7 3.9-5.1 6.2-5.1 6.2z" fill="#eb58a0"/><path d="M152.1 28.37c1.1-7.6-.7-17.3-7.7-20.9-4.4-2.7-17.3-.1-21.2 7.1 8.9-3.5 20.3-2.7 25.7 6.8 2.3 3.9 3.2 7 3.2 7z" fill="#ea545e"/><path d="M142.9 4.97c-5.6-4.5-14.4-7.1-20.6-2.7-7.1 4.4-8.8 14.1-4.4 22.1.9-9.7 8-17.7 17.4-19.4 4.4-.5 7.6 0 7.6 0z" fill="#ef7543"/><g><path d="M23 34.97c0-1.8-.7-3.3-2-4.6-1.3-1.2-3.6-2.3-6.9-3.1-4.1-1-7.3-2.5-9.6-4.5s-3.4-4.4-3.4-7.4c0-3.1 1.2-5.8 3.7-7.9 2.5-2.1 5.7-3.1 9.6-3.1 4.2 0 7.6 1.2 10.1 3.6 2.5 2.4 3.7 5.2 3.7 8.4l-.1.2h-5.2c0-2.3-.8-4.2-2.4-5.7-1.6-1.5-3.6-2.2-6.1-2.2-2.5 0-4.5.6-5.8 1.8-1.4 1.2-2 2.8-2 4.8 0 1.7.7 3.2 2.2 4.4 1.5 1.2 3.9 2.2 7.2 3.1 4 1 7.1 2.6 9.2 4.6 2.1 2 3.2 4.6 3.2 7.6 0 3.2-1.3 5.8-3.8 7.8s-5.9 2.9-10 2.9c-3.9 0-7.3-1.1-10.3-3.3-3-2.2-4.4-5.1-4.3-8.7l.1-.2h5.2c0 2.5 1 4.5 2.9 5.8 1.9 1.4 4.1 2.1 6.5 2.1 2.6 0 4.6-.6 6.1-1.7 1.4-1.2 2.2-2.7 2.2-4.7zM66.7 28.57c0 4.9-1.5 9-4.6 12.2-3 3.2-7 4.9-11.8 4.9-4.7 0-8.5-1.6-11.4-4.9-2.9-3.2-4.4-7.3-4.4-12.2v-7.1c0-4.9 1.5-9 4.4-12.2 2.9-3.3 6.7-4.9 11.4-4.9 4.9 0 8.8 1.6 11.8 4.9 3 3.2 4.6 7.3 4.6 12.2zm-5.4-7.2c0-3.7-1-6.7-3-9-2-2.4-4.6-3.5-8-3.5-3.2 0-5.7 1.2-7.6 3.5-1.9 2.4-2.8 5.4-2.8 9v7.2c0 3.7.9 6.7 2.8 9.1 1.9 2.4 4.4 3.5 7.6 3.5 3.4 0 6-1.2 8-3.5s3-5.4 3-9.1zM80 40.87h19.6v4.2h-25V4.97H80z" fill="#5584ac"/><path d="M167.2 40.87h19.6v4.2h-25V4.97h5.4zM214.7 26.47h-16.5v14.4h19.3v4.2h-24.7V4.97h24.4v4.3h-19v13h16.5zM244.6 34.77h-15.1l-3.6 10.3h-5.5l14.5-40.1h4.7l14.2 40.1h-5.5zm-13.5-4.6h12l-5.8-17.2h-.2zM265 27.67v17.4h-5.4V4.97h13.7c4.4 0 7.7 1 10.1 2.9 2.3 1.9 3.5 4.8 3.5 8.5 0 2.1-.5 3.9-1.6 5.4-1.1 1.5-2.6 2.7-4.7 3.6 2.2.7 3.8 1.9 4.8 3.5s1.4 3.6 1.4 6v3.8c0 1.2.1 2.4.4 3.4.3 1 .8 1.8 1.4 2.4v.7H283a4.4 4.4 0 01-1.4-2.8c-.2-1.2-.3-2.5-.3-3.7v-3.8c0-2.2-.6-3.9-1.9-5.2-1.3-1.3-3-2-5.1-2zm0-4.3h7.7c3.1 0 5.3-.6 6.6-1.8 1.3-1.2 2-2.9 2-5.3 0-2.3-.7-4-2-5.3-1.3-1.2-3.4-1.9-6.1-1.9h-8.3v14.3zM325.9 45.07h-5.4l-19.3-30.7-.2.1v30.6h-5.4V4.97h5.4l19.3 30.6.2-.1V4.97h5.4z" fill="#959494"/></g></svg>